<?xml version="1.0" encoding="UTF-8"?> <svg xmlns="http://www.w3.org/2000/svg" id="Layer_2" viewBox="0 0 196 74"><defs><style>.cls-1{fill:none;}.cls-2{fill:#f4a93b;}.cls-3{fill:#f08c1f;}.cls-4{fill:#ea5a25;}.cls-5{fill:#e61d24;}.cls-6{fill:#fff;}.cls-7{fill:#ba282d;}</style></defs><g id="Layer_2-2"><rect class="cls-1" width="196" height="74"></rect><g id="Layer_1-2"><path class="cls-6" d="m156.23,39c4.2-3.19,6.25-6.6,6.25-10.46,0-7.07-5.64-12.02-13.73-12.02-6.1,0-11.55,2.92-14.95,8.01l-.82,1.23,8.22,3.12.52-.8c1.57-2.42,4-3.81,6.67-3.81,2.96,0,5.38,1.87,5.38,4.16,0,1.54-.81,2.91-2.53,4.3l-16.9,13.35v8.07h27.34v-8.08h-14.76l9.35-7.07h-.03Z"></path><polygon class="cls-6" points="186.87 37.76 186.87 29.45 178.47 29.45 178.47 37.76 173.96 37.76 183.05 17.24 174.19 17.24 161.6 46.11 178.47 46.11 178.47 54.16 186.87 54.16 186.87 46.11 191.66 46.11 191.66 37.76 186.87 37.76"></polygon><path class="cls-6" d="m124.11,41.17l-.71.96c-2.02,2.73-5.16,4.3-8.6,4.3-4.62,0-8.65-3.16-10.07-7.41-.04-.15-.09-.29-.13-.43-.27-.92-.42-1.88-.42-2.88,0-5.82,4.86-10.73,10.63-10.73,3.47,0,6.48,1.59,8.46,4.49l.71,1.04,7.29-5.47-.77-.97c-3.87-4.87-9.45-7.55-15.69-7.55-9.68,0-17.52,6.44-19.34,15.24-1.72-.38-3.48-.59-5.09-.8-5.14-.65-7.55-1.16-7.55-3.16,0-1.72,1.87-3.47,6.06-3.47,2.25,0,4.16.54,6.02,1.75,1.3-2.59,3.11-4.88,5.33-6.74-3.1-1.86-6.78-2.81-11.02-2.81-8.84,0-15.51,4.98-15.51,11.61,0,9.16,8.48,10.3,14.67,11.12,4.72.63,7.62,1.13,7.62,3.24,0,2.86-3.64,3.92-7.05,3.96-3.38,0-6.78-1.57-9.35-4.3l-.81-.86-6.64,5.97.86.9c4.09,4.3,9.8,6.76,15.67,6.76,4.82,0,9.8-1.63,13.02-4.76,3.47,2.97,8.05,4.76,13.13,4.76,6.25,0,11.82-2.68,15.69-7.55l.78-.99-7.16-5.19-.04-.03Z"></path><path class="cls-6" d="m156.23,39c4.2-3.19,6.25-6.6,6.25-10.46,0-7.07-5.64-12.02-13.73-12.02-6.1,0-11.55,2.92-14.95,8.01l-.82,1.23,8.22,3.12.52-.8c1.57-2.42,4-3.81,6.67-3.81,2.96,0,5.38,1.87,5.38,4.16,0,1.54-.81,2.91-2.53,4.3l-16.9,13.35v8.07h27.34v-8.08h-14.76l9.35-7.07h-.03Z"></path><polygon class="cls-6" points="186.87 37.76 186.87 29.45 178.47 29.45 178.47 37.76 173.96 37.76 183.05 17.24 174.19 17.24 161.6 46.11 178.47 46.11 178.47 54.16 186.87 54.16 186.87 46.11 191.66 46.11 191.66 37.76 186.87 37.76"></polygon><path class="cls-6" d="m124.11,41.17l-.71.96c-2.02,2.73-5.16,4.3-8.6,4.3-4.62,0-8.65-3.16-10.07-7.41-.04-.15-.09-.29-.13-.43-.27-.92-.42-1.88-.42-2.88,0-5.82,4.86-10.73,10.63-10.73,3.47,0,6.48,1.59,8.46,4.49l.71,1.04,7.29-5.47-.77-.97c-3.87-4.87-9.45-7.55-15.69-7.55-9.68,0-17.52,6.44-19.34,15.24-1.72-.38-3.48-.59-5.09-.8-5.14-.65-7.55-1.16-7.55-3.16,0-1.72,1.87-3.47,6.06-3.47,2.25,0,4.16.54,6.02,1.75,1.3-2.59,3.11-4.88,5.33-6.74-3.1-1.86-6.78-2.81-11.02-2.81-8.84,0-15.51,4.98-15.51,11.61,0,9.16,8.48,10.3,14.67,11.12,4.72.63,7.62,1.13,7.62,3.24,0,2.86-3.64,3.92-7.05,3.96-3.38,0-6.78-1.57-9.35-4.3l-.81-.86-6.64,5.97.86.9c4.09,4.3,9.8,6.76,15.67,6.76,4.82,0,9.8-1.63,13.02-4.76,3.47,2.97,8.05,4.76,13.13,4.76,6.25,0,11.82-2.68,15.69-7.55l.78-.99-7.16-5.19-.04-.03Z"></path><path class="cls-5" d="m24.28,17.74c1.9,3.15,4.35,3.81,7.21,3.26,3.53-5.31,4.24-15.23.91-19,0,0-2.63,6.09-8.8,11.3-11.3,9.54-7.87,19.71-7.87,19.71,1.72-6.5,5.57-9.2,10.69-9.96-2.01-2.33-2.14-5.33-2.14-5.33h0Z"></path><path class="cls-5" d="m27.53,32.22c.33-.7,8.82-20.01,27.2-10.87,14.93,7.44,8.63,23.38,8.63,23.38-.33-.48-20.57-30.22-35.83-12.51Z"></path><path class="cls-5" d="m58.5,52.36h0l.03-.03h0l1.09-1.13h0l1-1.21h0l.89-1.29h0l.32-.56c-1.14-3.24-2.78-5.88-4.58-8.05l.57,1.53v.05s.46,1.61.46,1.61v.05l.3,1.63h0v.05l.16,1.66v.05l.03,1.63v.05l-.11,1.63h0v.05l-.24,1.61v.05l-.14.59h0v.06s.06.06.11.06h0s.04-.01.06-.03l.06-.09Z"></path><path class="cls-4" d="m41.62,59.71l-1.14,1.08h-.01v.03s-1.32,1.04-1.32,1.04h-.01v.03s-1.39.92-1.39.92h-.01l-.03.03-1.45.8h-.03l-.03.03-1.48.66h-.05s-1.53.54-1.53.54h-.05l-1.57.4h-.05l-.61.1s-.08.04-.09.09h0c0,.05.03.09.06.11h.04v.03l1.45.57h0l1.51.46h0l1.53.33h0l.54.06c2.54-2.3,4.33-4.83,5.64-7.31l.06.03Z"></path><path class="cls-3" d="m7.74,52.08h0l.59,1.45h0l.23.44c3.25.81,6.29.89,9.02.62l-1.34-.3h-.05l-1.58-.51h-.05s-1.53-.65-1.53-.65h-.05s-1.47-.77-1.47-.77h-.03v-.03h-.01l-1.37-.87h-.01v-.03h-.01l-1.29-.97h-.01v-.03h-.01l-1.21-1.09h-.01v-.03s-.43-.44-.43-.44c0,0-.08-.04-.13-.03-.04.03-.06.06-.06.1h0v.04h0l.34,1.53h0l.47,1.51h0v.04Z"></path><path class="cls-2" d="m9.75,19.03h0l-1.23.99h0l-1.14,1.09h0l-1.04,1.18h0l-.94,1.27h0l-.11.19c1.08,3.92,2.91,7.05,4.91,9.55l-.1-.24v-.05s-.53-1.58-.53-1.58h0v-.05l-.39-1.62v-.05h0l-.25-1.64v-.05l-.1-1.66v-.05l.04-1.67v-.05l.16-1.62h0v-.05l.3-1.61v-.05l.43-1.57h0v-.05l.22-.57v-.04s-.01-.06-.04-.09c-.04-.03-.09-.03-.13,0l-.04.03-.03.08Z"></path><path class="cls-7" d="m59.37,19.72h0l-.59-1.45h0l-.32-.62c-3.14-.67-6.07-.68-8.69-.39l1.09.25h.05l1.58.51h.05s1.53.65,1.53.65h.05s1.47.77,1.47.77h.04l1.37.87h.01v.03s1.3.97,1.3.97h.01v.03s1.23,1.09,1.23,1.09h.01v.03s.43.44.43.44c0,0,.08.04.13.03.04-.01.06-.05.06-.09h0v-.03h0v-.04h0l-.34-1.54h0l-.47-1.51h0Z"></path><path class="cls-2" d="m37.22,41.18s-9.59,17.56-25.54,8.62C-2.87,41.65,3.3,26.31,3.3,26.31c-.37-.85,14.76,31.36,33.92,14.85h0Z"></path><path class="cls-3" d="m41.18,34.8s9.7,17.48-6.05,26.79c-14.36,8.48-24.49-4.57-24.49-4.57,0,0,27.91.57,30.54-22.23Z"></path><path class="cls-4" d="m38.16,28.77s18.29,1.53,18.05,19.66c-.22,16.67-16.83,18.38-16.83,18.38,0,0,16.72-23.75-1.23-38.04Z"></path><path class="cls-7" d="m36.69,7.82s11.22-4.05,20.54,7.68c0,0-11.44-1.83-22.34,4.52,0,0,2.42-5.17,1.8-12.2Z"></path><path class="cls-3" d="m77.46,60.94h-1.37v-.99h2.47l2.53,5.96h-1.19l-.46-1.13h-2.53l-.46,1.13h-1.18l2.18-4.97Zm1.59,2.87l-.86-2.14-.87,2.14h1.73Z"></path><path class="cls-3" d="m83.74,60.99h-1.75v-1.05h4.59v1.05h-1.75v4.92h-1.1v-4.92Z"></path><path class="cls-3" d="m88.71,59.95h1.1v4.92h2.34v-1.43h1.1v2.47h-4.55v-5.96h.01Z"></path><path class="cls-3" d="m97.24,60.94h-1.37v-.99h2.47l2.53,5.96h-1.19l-.46-1.13h-2.53l-.46,1.13h-1.18s2.18-4.97,2.18-4.97Zm1.59,2.87l-.86-2.14-.87,2.14h1.73Z"></path><path class="cls-3" d="m103.95,62.26v3.66h-1.1v-6.09l3.85,3.78v-3.66h1.1v6.09l-3.85-3.78Z"></path><path class="cls-3" d="m111.64,60.99h-1.75v-1.05h4.59v1.05h-1.75v4.92h-1.1v-4.92Z"></path><path class="cls-3" d="m118.01,60.94h-1.37v-.99h2.47l2.53,5.96h-1.19l-.46-1.13h-2.53l-.46,1.13h-1.18s2.18-4.97,2.18-4.97Zm1.59,2.87l-.86-2.14-.87,2.14h1.73Z"></path><path class="cls-3" d="m135.45,62.26v3.66h-1.1v-6.09l3.85,3.78v-3.66h1.1v6.09l-3.85-3.78Z"></path><path class="cls-3" d="m144.87,59.83c1.78,0,3.2,1.35,3.2,3.1s-1.42,3.11-3.2,3.11-3.2-1.35-3.2-3.11,1.42-3.1,3.2-3.1Zm0,5.16c1.08,0,2.04-.9,2.04-2.06s-.97-2.06-2.04-2.06-2.04.9-2.04,2.06.97,2.06,2.04,2.06Z"></path><path class="cls-3" d="m149.46,59.95h1.19l1.45,3.64,1.45-3.64h1.19l-2.64,6.09-2.64-6.09h0Z"></path><path class="cls-3" d="m160.7,61.57l-.8.54v-1.15l1.9-1.14v6.09h-1.1v-4.34Z"></path><path class="cls-3" d="m164.25,59.95h4.39l-2.49,5.96h-1.09l2.07-4.97h-1.85v1.01h-1.05v-2h.01Z"></path><path class="cls-3" d="m169.95,62.46h4.74v.82h-4.74v-.82Z"></path><path class="cls-3" d="m176.28,64.82l2.83-2.24c.35-.29.52-.58.52-.9,0-.53-.52-.92-1.13-.92-.56,0-1.02.29-1.32.75l-1.02-.39c.52-.78,1.37-1.29,2.42-1.29,1.38,0,2.16.86,2.16,1.87,0,.63-.37,1.16-1,1.64l-2.07,1.57v.03h3.05v.99h-4.44v-1.09h0Z"></path><path class="cls-3" d="m182.86,64.82l2.83-2.24c.35-.29.52-.58.52-.9,0-.53-.52-.92-1.13-.92-.56,0-1.02.29-1.32.75l-1.02-.39c.52-.78,1.37-1.29,2.42-1.29,1.38,0,2.16.86,2.16,1.87,0,.63-.37,1.16-1,1.64l-2.07,1.57v.03h3.05v.99h-4.44v-1.09h0Z"></path></g></g></svg> 